<?xml version="1.0" encoding="UTF-8"?>
<svg xmlns="http://www.w3.org/2000/svg" version="1.1" viewBox="0 0 693.21 360.55">
  <defs>
    <style>
      .cls-1 {
        fill: #f59646;
      }
    </style>
  </defs>
  <!-- Generator: Adobe Illustrator 28.6.0, SVG Export Plug-In . SVG Version: 1.2.0 Build 709)  -->
  <g>
    <g id="Layer_1">
      <g>
        <path class="cls-1" d="M213.61,305.85l-36.93-27.82c-2.53-1.52-5.06-1.52-7.59,1.52-8.6,10.12-25.8,21.25-46.03,21.25-36.42,0-57.16-22.76-57.16-67.78V9.93c0-3.03-2.03-5.06-5.06-5.06H11.27c-3.03,0-5.06,2.02-5.06,5.06v223.08c0,77.9,46.03,121.4,118.88,121.4,38.95,0,74.36-18.72,89.54-41.48,1.52-2.53,1.52-5.06-1.01-7.08Z"/>
        <path class="cls-1" d="M516.75,105.02c-34.91,0-59.18,12.14-77.9,32.37h-.51c-14.67-20.74-37.94-32.37-66.77-32.37-32.37,0-53.62,13.15-64.24,28.33h-.51v-17.71c0-3.03-2.02-5.06-5.06-5.06h-46.54c-3.03,0-5.06,2.02-5.06,5.06v123.19l-86.1-85.82L310.97,4.87h-76.99L85.1,153.75l201.3,200.66h79.7l-59.29-59.1v-86.58c0-31.36,17.2-53.11,46.54-53.11s46.03,21.75,46.03,53.11v140.63c0,3.04,2.03,5.06,5.06,5.06h46.54c3.04,0,5.06-2.02,5.06-5.06v-140.63c0-31.36,17.2-53.11,46.54-53.11s46.03,21.75,46.03,53.11v140.63c0,3.04,2.03,5.06,5.06,5.06h46.54c3.04,0,5.06-2.02,5.06-5.06v-153.78c0-52.1-31.87-90.55-88.52-90.55Z"/>
        <circle class="cls-1" cx="650.65" cy="320.31" r="35.37"/>
      </g>
    </g>
  </g>
</svg>